<svg width="313" height="1409" viewBox="0 0 313 1409" fill="none" xmlns="http://www.w3.org/2000/svg">
<path d="M156.5 1095.89C125.547 1095.89 95.2896 1105.07 69.5533 1122.27C43.817 1139.48 23.758 1163.93 11.9129 1192.53C0.0678101 1221.14 -3.0314 1252.62 3.00717 1282.99C9.04575 1313.36 23.951 1341.25 45.8379 1363.15C67.7248 1385.04 95.6104 1399.95 125.968 1405.99C156.326 1412.03 187.793 1408.93 216.39 1397.08C244.987 1385.23 269.428 1365.17 286.625 1339.42C303.821 1313.68 313 1283.41 313 1252.44C313 1210.92 296.512 1171.1 267.162 1141.74C237.813 1112.38 198.006 1095.89 156.5 1095.89ZM156.5 313.111C187.453 313.111 217.71 303.929 243.447 286.727C269.183 269.524 289.242 245.074 301.087 216.467C312.932 187.86 316.031 156.382 309.993 126.013C303.954 95.6444 289.049 67.7489 267.162 45.8542C245.275 23.9595 217.39 9.04895 187.032 3.0083C156.674 -3.03247 125.207 0.0678711 96.6101 11.9172C68.0135 23.7665 43.5715 43.8326 26.3751 69.578C9.17865 95.3235 0.00012207 125.592 0.00012207 156.556C0.00012207 198.077 16.4885 237.897 45.8379 267.257C75.1873 296.617 114.994 313.111 156.5 313.111ZM156.5 861.056C187.453 861.056 217.71 851.874 243.447 834.671C269.183 817.469 289.242 793.018 301.087 764.411C312.932 735.804 316.031 704.326 309.993 673.958C303.954 643.589 289.049 615.693 267.162 593.799C245.275 571.904 217.39 556.993 187.032 550.953C156.674 544.912 125.207 548.012 96.6101 559.862C68.0135 571.711 43.5715 591.777 26.3751 617.522C9.17865 643.268 0.00012207 673.536 0.00012207 704.5C0.00012207 746.021 16.4885 785.842 45.8379 815.201C75.1873 844.561 114.994 861.056 156.5 861.056Z" fill="black"/>
</svg>
